<svg width="782" height="171" viewBox="0 0 782 171" fill="none" xmlns="http://www.w3.org/2000/svg">
<rect x="118.411" y="23.4858" width="82" height="15" fill="white"/>
<rect x="118.411" y="61.5474" width="30" height="15" transform="rotate(-90 118.411 61.5474)" fill="white"/>
<rect x="133.531" y="86.3076" width="30" height="15" transform="rotate(90 133.531 86.3076)" fill="white"/>
<rect x="118.411" y="77.7568" width="81.9517" height="15" fill="white"/>
<rect x="118.411" y="132.028" width="84" height="15" fill="white"/>
<rect x="697.233" y="23.4858" width="82" height="15" fill="white"/>
<rect x="697.233" y="61.5474" width="30" height="15" transform="rotate(-90 697.233 61.5474)" fill="white"/>
<rect x="712.354" y="86.3076" width="30" height="15" transform="rotate(90 712.354 86.3076)" fill="white"/>
<rect x="697.233" y="77.7568" width="81.9517" height="15" fill="white"/>
<rect x="697.233" y="132.028" width="84" height="15" fill="white"/>
<rect x="336.411" y="23.4858" width="82" height="15" fill="white"/>
<rect x="336.411" y="61.5474" width="30" height="15" transform="rotate(-90 336.411 61.5474)" fill="white"/>
<rect x="351.531" y="86.3076" width="30" height="15" transform="rotate(90 351.531 86.3076)" fill="white"/>
<rect x="336.411" y="77.7568" width="81.9517" height="15" fill="white"/>
<rect x="336.411" y="132.028" width="84" height="15" fill="white"/>
<rect x="445.411" y="132.028" width="84" height="15" fill="white"/>
<rect x="445.411" y="116.086" width="92.6001" height="15" transform="rotate(-90 445.411 116.086)" fill="white"/>
<path d="M82.8811 54.5296C82.1567 48.4121 79.2187 43.6631 74.0672 40.2824C68.9157 36.9017 62.597 35.2114 55.1112 35.2114C49.6378 35.2114 44.8485 36.0968 40.7433 37.8676C36.6785 39.6385 33.499 42.0734 31.205 45.1723C28.9512 48.2713 27.8243 51.7928 27.8243 55.7369C27.8243 59.0371 28.6091 61.8745 30.1787 64.249C31.7886 66.5833 33.8411 68.5352 36.3364 70.1048C38.8316 71.6342 41.4477 72.902 44.1844 73.9081C46.9211 74.874 49.4365 75.6588 51.7306 76.2625L64.2874 79.6432C67.5071 80.4884 71.089 81.6555 75.0331 83.1446C79.0175 84.6337 82.8208 86.6662 86.4429 89.2419C90.1053 91.7774 93.1238 95.0374 95.4983 99.0217C97.8728 103.006 99.0601 107.896 99.0601 113.691C99.0601 120.372 97.3094 126.409 93.808 131.802C90.3468 137.195 85.2758 141.482 78.5949 144.661C71.9543 147.84 63.8849 149.43 54.3868 149.43C45.5326 149.43 37.8657 148.001 31.3861 145.144C24.9467 142.286 19.8757 138.302 16.173 133.191C12.5106 128.08 10.4379 122.143 9.95499 115.382H25.4095C25.812 120.05 27.3816 123.914 30.1183 126.973C32.8953 129.991 36.3968 132.245 40.6226 133.734C44.8887 135.183 49.4768 135.907 54.3868 135.907C60.1018 135.907 65.2332 134.982 69.781 133.13C74.3288 131.239 77.9308 128.623 80.5871 125.282C83.2433 121.902 84.5715 117.958 84.5715 113.45C84.5715 109.345 83.4245 106.004 81.1304 103.429C78.8364 100.853 75.8179 98.7601 72.075 97.1503C68.3321 95.5405 64.2874 94.1318 59.9408 92.9244L44.7277 88.5779C35.0686 85.8009 27.4218 81.8366 21.7874 76.6851C16.1529 71.5336 13.3357 64.7923 13.3357 56.4614C13.3357 49.539 15.2071 43.5021 18.95 38.3506C22.7332 33.1588 27.8042 29.1342 34.1631 26.2767C40.5622 23.379 47.7059 21.9301 55.5942 21.9301C63.5629 21.9301 70.6463 23.3589 76.8442 26.2163C83.0421 29.0336 87.9522 32.8972 91.5743 37.8073C95.2367 42.7173 97.1685 48.2914 97.3698 54.5296H82.8811Z" fill="white"/>
<path d="M661.703 54.5296C660.979 48.4121 658.041 43.6631 652.889 40.2824C647.738 36.9017 641.419 35.2114 633.934 35.2114C628.46 35.2114 623.671 36.0968 619.566 37.8676C615.501 39.6385 612.321 42.0734 610.027 45.1723C607.773 48.2713 606.647 51.7928 606.647 55.7369C606.647 59.0371 607.431 61.8745 609.001 64.249C610.611 66.5833 612.663 68.5352 615.159 70.1048C617.654 71.6342 620.27 72.902 623.007 73.9081C625.743 74.874 628.259 75.6588 630.553 76.2625L643.11 79.6432C646.329 80.4884 649.911 81.6555 653.855 83.1446C657.84 84.6337 661.643 86.6662 665.265 89.2419C668.928 91.7774 671.946 95.0374 674.321 99.0217C676.695 103.006 677.882 107.896 677.882 113.691C677.882 120.372 676.132 126.409 672.63 131.802C669.169 137.195 664.098 141.482 657.417 144.661C650.777 147.84 642.707 149.43 633.209 149.43C624.355 149.43 616.688 148.001 610.208 145.144C603.769 142.286 598.698 138.302 594.995 133.191C591.333 128.08 589.26 122.143 588.777 115.382H604.232C604.634 120.05 606.204 123.914 608.941 126.973C611.718 129.991 615.219 132.245 619.445 133.734C623.711 135.183 628.299 135.907 633.209 135.907C638.924 135.907 644.055 134.982 648.603 133.13C653.151 131.239 656.753 128.623 659.409 125.282C662.066 121.902 663.394 117.958 663.394 113.45C663.394 109.345 662.247 106.004 659.953 103.429C657.659 100.853 654.64 98.7601 650.897 97.1503C647.154 95.5405 643.11 94.1318 638.763 92.9244L623.55 88.5779C613.891 85.8009 606.244 81.8366 600.61 76.6851C594.975 71.5336 592.158 64.7923 592.158 56.4614C592.158 49.539 594.029 43.5021 597.772 38.3506C601.555 33.1588 606.626 29.1342 612.985 26.2767C619.384 23.379 626.528 21.9301 634.416 21.9301C642.385 21.9301 649.469 23.3589 655.666 26.2163C661.864 29.0336 666.774 32.8972 670.397 37.8073C674.059 42.7173 675.991 48.2914 676.192 54.5296H661.703Z" fill="white"/>
<rect x="554.411" y="147.028" width="123.542" height="15" transform="rotate(-90 554.411 147.028)" fill="white"/>
<rect x="227.411" y="23.4858" width="82" height="15" fill="white"/>
<rect x="227.411" y="61.5474" width="30" height="15" transform="rotate(-90 227.411 61.5474)" fill="white"/>
<rect x="242.531" y="86.3076" width="30" height="15" transform="rotate(90 242.531 86.3076)" fill="white"/>
<rect x="227.411" y="77.7568" width="81.9517" height="15" fill="white"/>
<rect x="227.411" y="132.028" width="84" height="15" fill="white"/>
</svg>
