<svg width="359" height="71" viewBox="0 0 359 71" fill="none" xmlns="http://www.w3.org/2000/svg">
<path d="M27.5756 70.3627C19.7036 70.3627 13.2396 68.5067 8.18357 64.7947C3.12757 61.0187 0.407574 55.6427 0.0235742 48.6667H20.0876C20.2796 51.0347 20.9836 52.7627 22.1996 53.8507C23.4156 54.9387 24.9836 55.4827 26.9036 55.4827C28.6316 55.4827 30.0396 55.0667 31.1276 54.2347C32.2796 53.3387 32.8556 52.1227 32.8556 50.5867C32.8556 48.6027 31.9276 47.0667 30.0716 45.9787C28.2156 44.8907 25.2076 43.6747 21.0476 42.3307C16.6316 40.8587 13.0476 39.4507 10.2956 38.1067C7.60757 36.6987 5.23957 34.6827 3.19157 32.0587C1.20757 29.3707 0.215574 25.8827 0.215574 21.5947C0.215574 17.2427 1.30357 13.5307 3.47957 10.4587C5.65557 7.32267 8.66357 4.95467 12.5036 3.35467C16.3436 1.75467 20.6956 0.954672 25.5596 0.954672C33.4316 0.954672 39.7036 2.81067 44.3756 6.52267C49.1116 10.1707 51.6396 15.3227 51.9596 21.9787H31.5116C31.4476 19.9307 30.8076 18.3947 29.5916 17.3707C28.4396 16.3467 26.9356 15.8347 25.0796 15.8347C23.6716 15.8347 22.5196 16.2507 21.6236 17.0827C20.7276 17.9147 20.2796 19.0987 20.2796 20.6347C20.2796 21.9147 20.7596 23.0347 21.7196 23.9947C22.7436 24.8907 23.9916 25.6907 25.4636 26.3947C26.9356 27.0347 29.1116 27.8667 31.9916 28.8907C36.2796 30.3627 39.7996 31.8347 42.5516 33.3067C45.3676 34.7147 47.7676 36.7307 49.7516 39.3547C51.7996 41.9147 52.8236 45.1787 52.8236 49.1467C52.8236 53.1787 51.7996 56.7947 49.7516 59.9947C47.7676 63.1947 44.8556 65.7227 41.0156 67.5787C37.2396 69.4347 32.7596 70.3627 27.5756 70.3627ZM82.3868 17.0827V28.1227H103.987V42.4267H82.3868V54.6187H106.867V69.6907H63.5708V2.01067H106.867V17.0827H82.3868ZM136.981 17.0827V28.1227H158.581V42.4267H136.981V54.6187H161.461V69.6907H118.165V2.01067H161.461V17.0827H136.981ZM191.574 55.2907H212.598V69.6907H172.758V2.01067H191.574V55.2907ZM240.731 2.01067V69.6907H221.915V2.01067H240.731ZM278.982 70.3627C271.11 70.3627 264.646 68.5067 259.59 64.7947C254.534 61.0187 251.814 55.6427 251.43 48.6667H271.494C271.686 51.0347 272.39 52.7627 273.606 53.8507C274.822 54.9387 276.39 55.4827 278.31 55.4827C280.038 55.4827 281.446 55.0667 282.534 54.2347C283.686 53.3387 284.262 52.1227 284.262 50.5867C284.262 48.6027 283.334 47.0667 281.478 45.9787C279.622 44.8907 276.614 43.6747 272.454 42.3307C268.038 40.8587 264.454 39.4507 261.702 38.1067C259.014 36.6987 256.646 34.6827 254.598 32.0587C252.614 29.3707 251.622 25.8827 251.622 21.5947C251.622 17.2427 252.71 13.5307 254.886 10.4587C257.062 7.32267 260.07 4.95467 263.91 3.35467C267.75 1.75467 272.102 0.954672 276.966 0.954672C284.838 0.954672 291.11 2.81067 295.782 6.52267C300.518 10.1707 303.046 15.3227 303.366 21.9787H282.918C282.854 19.9307 282.214 18.3947 280.998 17.3707C279.846 16.3467 278.342 15.8347 276.486 15.8347C275.078 15.8347 273.926 16.2507 273.03 17.0827C272.134 17.9147 271.686 19.0987 271.686 20.6347C271.686 21.9147 272.166 23.0347 273.126 23.9947C274.15 24.8907 275.398 25.6907 276.87 26.3947C278.342 27.0347 280.518 27.8667 283.398 28.8907C287.686 30.3627 291.206 31.8347 293.958 33.3067C296.774 34.7147 299.174 36.7307 301.158 39.3547C303.206 41.9147 304.23 45.1787 304.23 49.1467C304.23 53.1787 303.206 56.7947 301.158 59.9947C299.174 63.1947 296.262 65.7227 292.422 67.5787C288.646 69.4347 284.166 70.3627 278.982 70.3627ZM333.793 17.0827V28.1227H355.393V42.4267H333.793V54.6187H358.273V69.6907H314.977V2.01067H358.273V17.0827H333.793Z" fill="white"/>
</svg>
